<svg id="Layer_1" data-name="Layer 1" xmlns="http://www.w3.org/2000/svg" width="128" height="128" viewBox="0 0 128 128"><defs><style>.cls-1{fill:#d4efdf;}.cls-2{fill:#27ae60;}.cls-3{fill:none;stroke:#27ae60;stroke-width:4px;}</style></defs><title>accepted-cso</title><rect class="cls-1" x="2" y="2" width="124" height="124" rx="10"/><path class="cls-2" d="M116,4a8,8,0,0,1,8,8V116a8,8,0,0,1-8,8H12a8,8,0,0,1-8-8V12a8,8,0,0,1,8-8H116m0-4H12A12,12,0,0,0,0,12V116a12,12,0,0,0,12,12H116a12,12,0,0,0,12-12V12A12,12,0,0,0,116,0Z"/><path class="cls-2" d="M65,20A18,18,0,1,1,47,38,18,18,0,0,1,65,20m0-4A22,22,0,1,0,87,38,22,22,0,0,0,65,16Z"/><path class="cls-2" d="M27.5,16A8.51,8.51,0,0,0,19,24.5V49.57A32,32,0,0,0,28.37,72.2l7.35,7.34A7.83,7.83,0,0,1,38,85.06V106a6,6,0,0,0,6,6H99a6,6,0,0,0,6-6v-3.25a27.64,27.64,0,0,1-4,1.56V106a2,2,0,0,1-2,2H44a2,2,0,0,1-2-2V85.06a11.7,11.7,0,0,0-3.46-8.34L31.2,69.37A27.81,27.81,0,0,1,23,49.57V24.5A4.51,4.51,0,0,1,27.5,20h.32A4.74,4.74,0,0,1,32,24.8V40a29.14,29.14,0,0,0,5,16.35A26.46,26.46,0,0,0,58.94,68h8.44a28.45,28.45,0,0,1,2-4H58.94a22.48,22.48,0,0,1-18.62-9.89h0A25.17,25.17,0,0,1,36,40V24.8A8.7,8.7,0,0,0,28.08,16l-.58,0Z"/><path class="cls-2" d="M93,58A20,20,0,1,1,73,78,20,20,0,0,1,93,58m0-4a24,24,0,1,0,24,24A24,24,0,0,0,93,54Z"/><polyline class="cls-3" points="81.83 78.47 89.61 86.25 105.17 70.7"/></svg>