<svg id="Layer_1" data-name="Layer 1" xmlns="http://www.w3.org/2000/svg" width="128" height="128" viewBox="0 0 128 128"><defs><style>.cls-1{fill:#d4efdf;}.cls-2{fill:#27ae60;}.cls-3{fill:none;stroke:#27ae60;stroke-width:4px;}</style></defs><title>complete-verified</title><rect class="cls-1" x="2" y="2" width="124" height="124" rx="10"/><path class="cls-2" d="M116,4a8,8,0,0,1,8,8V116a8,8,0,0,1-8,8H12a8,8,0,0,1-8-8V12a8,8,0,0,1,8-8H116m0-4H12A12,12,0,0,0,0,12V116a12,12,0,0,0,12,12H116a12,12,0,0,0,12-12V12A12,12,0,0,0,116,0Z"/><path class="cls-2" d="M64,30A34,34,0,1,1,30,64,34,34,0,0,1,64,30m0-4a38,38,0,1,0,38,38A38,38,0,0,0,64,26Z"/><polyline class="cls-3" points="45.53 63.29 57.84 75.61 82.47 50.98"/></svg>