<svg id="Layer_1" data-name="Layer 1" xmlns="http://www.w3.org/2000/svg" width="128" height="128" viewBox="0 0 128 128"><defs><style>.cls-1{fill:#d4efdf;}.cls-2{fill:#27ae60;}.cls-3{fill:none;stroke:#27ae60;stroke-width:4px;}</style></defs><title>completed-volunteer</title><rect class="cls-1" x="2" y="2" width="124" height="124" rx="10"/><path class="cls-2" d="M116,4a8,8,0,0,1,8,8V116a8,8,0,0,1-8,8H12a8,8,0,0,1-8-8V12a8,8,0,0,1,8-8H116m0-4H12A12,12,0,0,0,0,12V116a12,12,0,0,0,12,12H116a12,12,0,0,0,12-12V12A12,12,0,0,0,116,0Z"/><path class="cls-2" d="M63,20A18,18,0,1,1,45,38,18,18,0,0,1,63,20m0-4A22,22,0,1,0,85,38,22,22,0,0,0,63,16Z"/><path class="cls-2" d="M67.6,64H45A20,20,0,0,0,25,84v22a6,6,0,0,0,6,6H95a6,6,0,0,0,6-6v-.13a28.43,28.43,0,0,1-4.14.87A2,2,0,0,1,95,108H31a2,2,0,0,1-2-2V84A16,16,0,0,1,45,68H65.77a29.55,29.55,0,0,1,1.83-4Z"/><path class="cls-2" d="M93,58A20,20,0,1,1,73,78,20,20,0,0,1,93,58m0-4a24,24,0,1,0,24,24A24,24,0,0,0,93,54Z"/><polyline class="cls-3" points="81.83 78.47 89.61 86.25 105.17 70.7"/></svg>