<svg id="Layer_1" data-name="Layer 1" xmlns="http://www.w3.org/2000/svg" width="128" height="128" viewBox="0 0 128 128"><defs><style>.cls-1{fill:#fde8d2;}.cls-2{fill:#f78e1e;}.cls-3{fill:none;stroke:#f78e1e;stroke-width:4px;}</style></defs><title>declined-cso</title><rect class="cls-1" x="2" y="2" width="124" height="124" rx="10"/><path class="cls-2" d="M116,4a8,8,0,0,1,8,8V116a8,8,0,0,1-8,8H12a8,8,0,0,1-8-8V12a8,8,0,0,1,8-8H116m0-4H12A12,12,0,0,0,0,12V116a12,12,0,0,0,12,12H116a12,12,0,0,0,12-12V12A12,12,0,0,0,116,0Z"/><path class="cls-2" d="M64,30A34,34,0,1,1,30,64,34,34,0,0,1,64,30m0-4a38,38,0,1,0,38,38A38,38,0,0,0,64,26Z"/><line class="cls-3" x1="47.91" y1="47.99" x2="80.09" y2="80.01"/><line class="cls-3" x1="47.91" y1="80.01" x2="80.09" y2="47.99"/></svg>